<?xml version="1.0" encoding="utf-8"?>
<!-- Svg Vector Icons : http://www.onlinewebfonts.com/icon -->
<!DOCTYPE svg PUBLIC "-//W3C//DTD SVG 1.1//EN" "http://www.w3.org/Graphics/SVG/1.1/DTD/svg11.dtd">
<svg version="1.1" xmlns="http://www.w3.org/2000/svg" xmlns:xlink="http://www.w3.org/1999/xlink" x="0px" y="0px" fill="rgb(233, 85, 15)" viewBox="0 0 1000 1000" enable-background="new 0 0 1000 1000" xml:space="preserve">
<metadata> Svg Vector Icons : http://www.onlinewebfonts.com/icon </metadata>
<g><g transform="translate(0.000000,511.000000) scale(0.100000,-0.100000)"><path d="M4599.3,4999c-835-74.9-1630.3-352.5-2308.9-804.1c-601.5-401-1136.8-965-1504.7-1579.6C-9.7,1282.3-119.8-392,490.4-1815.3c680.8-1586.2,2123.8-2690,3837.9-2936.8c319.5-46.3,965-50.7,1266.8-11c1460.7,196.1,2692.2,960.6,3509.6,2178.9c182.9,271,431.8,784.3,539.8,1106C9833.9-905.4,9900-495.6,9900,108.1c0,797.5-147.6,1445.3-491.3,2148.1c-722.6,1473.9-2082,2465.3-3718.9,2707.6C5410,5005.6,4870.3,5023.3,4599.3,4999z M5106,2846.6c46.3-46.3,130-264.4,354.7-909.9c163-467.1,297.4-850.4,301.8-854.8c2.2-4.4,423-15.4,936.3-26.4c603.7-15.4,951.8-30.8,980.4-46.3c63.9-33,101.4-119,83.7-189.5c-11-41.9-209.3-200.5-766.7-616.9c-412-308.4-753.5-564-755.7-566.2c-2.2-2.2,119-403.2,268.8-892.3c176.3-572.8,268.8-909.9,262.2-942.9c-17.6-66.1-90.3-116.8-167.5-116.8c-55.1,0-469.3,275.4-1476.1,973.8l-125.6,88.1l-771.1-531c-817.4-561.8-854.8-581.6-949.6-486.9c-24.2,24.2-44.1,72.7-44.1,107.9c0,35.3,119,453.9,264.4,929.7c145.4,475.9,257.8,872.5,249,881.2c-11,6.6-339.3,253.4-733.6,548.6c-394.4,293-729.2,550.8-742.5,568.4c-46.3,57.3-35.2,167.4,22,220.3c48.5,46.3,74.9,46.3,993.6,68.3c517.7,13.2,947.3,24.2,949.6,28.6c4.4,4.4,141,394.4,306.2,865.8c310.6,887.9,343.7,958.4,456.1,958.4C5026.7,2906,5075.1,2879.6,5106,2846.6z"/></g></g>
</svg>